<?xml version="1.0" encoding="UTF-8" standalone="no"?><svg xmlns="http://www.w3.org/2000/svg" xmlns:xlink="http://www.w3.org/1999/xlink" contentScriptType="application/ecmascript" contentStyleType="text/css" height="350px" preserveAspectRatio="none" style="width:344px;height:350px;" version="1.1" viewBox="0 0 344 350" width="344px" zoomAndPan="magnify"><defs><filter height="300%" id="f26z0q7jes5c3" width="300%" x="-1" y="-1"><feGaussianBlur result="blurOut" stdDeviation="2.0"/><feColorMatrix in="blurOut" result="blurOut2" type="matrix" values="0 0 0 0 0 0 0 0 0 0 0 0 0 0 0 0 0 0 .4 0"/><feOffset dx="4.0" dy="4.0" in="blurOut2" result="blurOut3"/><feBlend in="SourceGraphic" in2="blurOut3" mode="normal"/></filter></defs><g><ellipse cx="171.5" cy="20" fill="#000000" filter="url(#f26z0q7jes5c3)" rx="10" ry="10" style="stroke: none; stroke-width: 1.0;"/><rect fill="#FEFECE" filter="url(#f26z0q7jes5c3)" height="33.9688" rx="12.5" ry="12.5" style="stroke: #A80036; stroke-width: 1.5;" width="187" x="78" y="50"/><text fill="#000000" font-family="sans-serif" font-size="12" lengthAdjust="spacingAndGlyphs" textLength="167" x="88" y="71.1387">Parse YAML's native syntax</text><rect fill="#FEFECE" filter="url(#f26z0q7jes5c3)" height="33.9688" rx="12.5" ry="12.5" style="stroke: #A80036; stroke-width: 1.5;" width="298" x="22.5" y="103.9688"/><text fill="#000000" font-family="sans-serif" font-size="12" lengthAdjust="spacingAndGlyphs" textLength="278" x="32.5" y="125.1074">Parse Deployment Manager's specific syntax</text><rect fill="#FEFECE" filter="url(#f26z0q7jes5c3)" height="33.9688" rx="12.5" ry="12.5" style="stroke: #A80036; stroke-width: 1.5;" width="272" x="35.5" y="157.9375"/><text fill="#000000" font-family="sans-serif" font-size="12" lengthAdjust="spacingAndGlyphs" textLength="252" x="45.5" y="179.0762">Lookup GCP Structs(custom/generaded)</text><rect fill="#FEFECE" filter="url(#f26z0q7jes5c3)" height="33.9688" rx="12.5" ry="12.5" style="stroke: #A80036; stroke-width: 1.5;" width="323" x="10" y="211.9063"/><text fill="#000000" font-family="sans-serif" font-size="12" lengthAdjust="spacingAndGlyphs" textLength="303" x="20" y="233.0449">Convert finalized GCP Structs to Terraform(HCL2)</text><rect fill="#FEFECE" filter="url(#f26z0q7jes5c3)" height="33.9688" rx="12.5" ry="12.5" style="stroke: #A80036; stroke-width: 1.5;" width="236" x="53.5" y="265.875"/><text fill="#000000" font-family="sans-serif" font-size="12" lengthAdjust="spacingAndGlyphs" textLength="216" x="63.5" y="287.0137">Output converted Terraform(HCL2)</text><ellipse cx="171.5" cy="329.8438" fill="#FFFFFF" filter="url(#f26z0q7jes5c3)" rx="10" ry="10" style="stroke: #000000; stroke-width: 1.5;"/><line style="stroke: #000000; stroke-width: 2.5;" x1="165.3128" x2="177.6872" y1="323.6566" y2="336.0309"/><line style="stroke: #000000; stroke-width: 2.5;" x1="177.6872" x2="165.3128" y1="323.6566" y2="336.0309"/><line style="stroke: #A80036; stroke-width: 1.5;" x1="171.5" x2="171.5" y1="30" y2="50"/><polygon fill="#A80036" points="167.5,40,171.5,50,175.5,40,171.5,44" style="stroke: #A80036; stroke-width: 1.0;"/><line style="stroke: #A80036; stroke-width: 1.5;" x1="171.5" x2="171.5" y1="83.9688" y2="103.9688"/><polygon fill="#A80036" points="167.5,93.9688,171.5,103.9688,175.5,93.9688,171.5,97.9688" style="stroke: #A80036; stroke-width: 1.0;"/><line style="stroke: #A80036; stroke-width: 1.5;" x1="171.5" x2="171.5" y1="137.9375" y2="157.9375"/><polygon fill="#A80036" points="167.5,147.9375,171.5,157.9375,175.5,147.9375,171.5,151.9375" style="stroke: #A80036; stroke-width: 1.0;"/><line style="stroke: #A80036; stroke-width: 1.5;" x1="171.5" x2="171.5" y1="191.9063" y2="211.9063"/><polygon fill="#A80036" points="167.5,201.9063,171.5,211.9063,175.5,201.9063,171.5,205.9063" style="stroke: #A80036; stroke-width: 1.0;"/><line style="stroke: #A80036; stroke-width: 1.5;" x1="171.5" x2="171.5" y1="245.875" y2="265.875"/><polygon fill="#A80036" points="167.5,255.875,171.5,265.875,175.5,255.875,171.5,259.875" style="stroke: #A80036; stroke-width: 1.0;"/><line style="stroke: #A80036; stroke-width: 1.5;" x1="171.5" x2="171.5" y1="299.8438" y2="319.8438"/><polygon fill="#A80036" points="167.5,309.8438,171.5,319.8438,175.5,309.8438,171.5,313.8438" style="stroke: #A80036; stroke-width: 1.0;"/><!--
@startuml
start 
:Parse YAML's native syntax;
:Parse Deployment Manager's specific syntax;
:Lookup GCP Structs(custom/generaded);
:Convert finalized GCP Structs to Terraform(HCL2);
:Output converted Terraform(HCL2);
end

@enduml

PlantUML version 1.2019.06(Fri May 24 17:10:25 UTC 2019)
(GPL source distribution)
Java Runtime: OpenJDK Runtime Environment
JVM: OpenJDK 64-Bit Server VM
Java Version: 11.0.3+7-Ubuntu-1ubuntu218.04.1
Operating System: Linux
OS Version: 4.9.93-linuxkit-aufs
Default Encoding: ANSI_X3.4-1968
Language: en
Country: US
--></g></svg>